<?xml version="1.0" standalone="no"?>
<!DOCTYPE svg PUBLIC "-//W3C//DTD SVG 20010904//EN"
 "http://www.w3.org/TR/2001/REC-SVG-20010904/DTD/svg10.dtd">
<svg version="1.0" xmlns="http://www.w3.org/2000/svg"
 width="1280.000000pt" height="1280.000000pt" viewBox="0 0 1280.000000 1280.000000"
 preserveAspectRatio="xMidYMid meet">
<metadata>
Created by potrace 1.15, written by Peter Selinger 2001-2017
</metadata>
<g transform="translate(0.000000,1280.000000) scale(0.100000,-0.100000)"
fill="#000000" stroke="none">
<path d="M6056 12600 c-1222 -66 -2372 -478 -3346 -1198 -483 -357 -943 -817
-1302 -1302 -1191 -1609 -1522 -3699 -888 -5600 101 -302 182 -497 330 -795
127 -257 236 -446 385 -670 385 -578 876 -1098 1435 -1518 614 -462 1335 -816
2072 -1018 1571 -429 3268 -215 4673 591 1188 682 2118 1734 2641 2988 1083
2597 265 5593 -1991 7292 -755 568 -1655 965 -2575 1134 -450 83 -999 119
-1434 96z m789 -845 c1097 -102 2094 -517 2945 -1225 161 -134 526 -499 660
-659 747 -900 1171 -1965 1240 -3116 80 -1353 -361 -2683 -1239 -3735 -202
-242 -557 -584 -816 -786 -1330 -1037 -3091 -1382 -4715 -922 -728 205 -1378
551 -1985 1054 -161 134 -507 479 -641 639 -734 883 -1144 1876 -1245 3020
-16 180 -16 660 0 840 83 943 376 1779 894 2555 315 470 771 949 1232 1293
452 338 984 617 1508 791 455 151 974 248 1447 269 157 7 552 -3 715 -18z"/>
<path d="M7804 9536 c-34 -8 -85 -26 -115 -41 -68 -35 -157 -125 -188 -192
l-25 -51 -39 14 c-59 21 -157 18 -224 -8 -40 -15 -74 -38 -112 -76 l-56 -55
-100 -1 c-94 -1 -105 -3 -145 -30 l-43 -28 -60 31 c-52 27 -70 31 -141 31
l-81 0 -14 33 c-25 55 -110 132 -174 155 -110 41 -245 24 -333 -43 -20 -15
-36 -25 -38 -24 -1 2 -14 25 -29 50 -80 140 -277 230 -442 202 -277 -48 -440
-311 -359 -583 l14 -48 -56 -58 c-48 -49 -63 -58 -106 -65 -77 -12 -153 -53
-214 -113 -135 -136 -160 -345 -58 -499 l25 -38 -25 -32 c-105 -139 -51 -367
107 -448 l38 -20 -31 -52 c-17 -29 -34 -57 -38 -64 -4 -7 -94 -17 -257 -27
-426 -27 -1029 -66 -1053 -69 -21 -2 -49 -63 -272 -592 l-248 -590 283 -3 283
-2 7 -58 c32 -260 232 -452 490 -469 279 -18 528 189 554 462 l6 60 1946 3
1946 2 7 -57 c10 -86 42 -174 87 -238 22 -32 38 -59 36 -61 -2 -2 -55 3 -118
11 -456 59 -1407 128 -1954 142 -1029 26 -2547 -296 -4140 -877 -372 -136
-1015 -395 -1003 -405 2 -1 170 40 373 91 2261 571 3537 812 4453 842 367 12
1558 -34 2257 -88 1134 -88 1947 -270 2755 -615 107 -46 196 -83 197 -81 5 4
-195 129 -317 198 -487 276 -1064 495 -1655 627 -77 17 -151 34 -165 37 l-25
6 30 21 c136 98 216 227 233 374 l7 68 83 3 c59 2 82 6 82 16 0 7 38 264 85
570 47 307 85 564 85 572 0 12 -84 14 -584 14 -455 0 -586 3 -593 13 -6 6
-110 214 -231 462 l-221 450 62 10 c118 20 213 91 260 193 33 72 31 198 -5
274 -30 64 -92 129 -148 155 -30 14 -38 22 -34 37 15 48 21 137 13 196 -36
254 -288 431 -535 376z"/>
</g>
</svg>
