<?xml version="1.0" standalone="no"?>
<!DOCTYPE svg PUBLIC "-//W3C//DTD SVG 20010904//EN"
 "http://www.w3.org/TR/2001/REC-SVG-20010904/DTD/svg10.dtd">
<svg version="1.0" xmlns="http://www.w3.org/2000/svg"
 width="1280.000000pt" height="640.000000pt" viewBox="0 0 1280.000000 640.000000"
 preserveAspectRatio="xMidYMid meet">
<metadata>
Created by potrace 1.15, written by Peter Selinger 2001-2017
</metadata>
<g transform="translate(0.000000,640.000000) scale(0.100000,-0.100000)"
fill="#000000" stroke="none">
<path d="M7315 5479 c-320 -9 -586 -25 -970 -59 -286 -26 -346 -31 -425 -41
-293 -34 -511 -82 -721 -155 -339 -119 -710 -302 -1114 -549 -238 -145 -804
-516 -901 -590 -62 -47 -131 -60 -249 -46 -148 17 -174 15 -516 -54 -440 -89
-685 -146 -934 -217 -656 -186 -914 -289 -1045 -418 -77 -76 -120 -147 -159
-262 -68 -199 -165 -373 -237 -425 -22 -16 -26 -30 -34 -108 -8 -85 -8 -333 1
-338 2 -1 22 -11 43 -22 52 -26 65 -61 75 -201 12 -155 29 -179 171 -225 87
-29 118 -45 151 -81 l27 -30 439 5 c278 3 465 10 513 18 112 19 158 15 190
-16 15 -14 55 -81 89 -149 98 -196 229 -324 431 -420 l92 -44 -133 -6 c-74 -3
-478 -8 -898 -11 -447 -3 -768 -8 -774 -14 -13 -13 26 -36 118 -71 l76 -30
5767 0 5767 0 74 33 c41 17 76 38 79 44 10 32 -54 35 -1018 40 -531 3 -981 8
-1000 12 l-34 7 78 37 c252 119 438 346 506 612 l10 41 482 -1 483 0 125 42
c69 23 172 52 230 64 218 45 307 70 370 101 63 32 66 36 107 117 104 207 169
498 143 637 -15 76 -40 106 -126 149 -62 32 -74 61 -74 190 0 65 -9 124 -34
229 -19 77 -46 200 -61 272 -27 130 -27 140 -9 276 19 150 -233 445 -637 744
-203 151 -592 398 -719 456 -30 14 -91 57 -135 96 -160 142 -147 136 -420 176
-654 95 -1544 164 -2400 186 -413 11 -471 11 -860 -1z m860 -59 c632 -18 1260
-59 1970 -130 143 -14 184 -21 191 -32 15 -24 -16 -29 -97 -14 -232 43 -852
96 -1474 127 -353 17 -1355 23 -1715 10 -774 -29 -1110 -68 -1529 -181 -41
-11 -89 -20 -106 -20 -30 0 -75 23 -75 39 0 20 341 82 640 115 737 83 1394
108 2195 86z m315 -85 c681 -12 1635 -93 1888 -160 186 -49 434 -159 635 -281
205 -124 385 -268 632 -503 188 -180 243 -237 284 -296 53 -76 55 -72 -73
-208 -63 -67 -133 -146 -156 -174 l-42 -53 -91 0 c-51 0 -348 -7 -662 -15
-313 -8 -675 -15 -802 -15 l-233 0 0 26 c0 40 29 143 55 193 43 86 12 80 476
96 494 17 776 33 816 44 80 23 167 103 178 164 10 52 -7 91 -79 187 -175 234
-575 539 -876 668 -197 85 -453 150 -711 181 -161 20 -601 53 -969 73 -300 17
-1719 17 -1995 0 -605 -37 -816 -64 -1095 -139 -197 -53 -362 -116 -560 -214
-391 -194 -731 -434 -1105 -778 -60 -55 -117 -101 -126 -101 -15 0 -56 25
-120 73 l-24 18 48 44 c26 24 110 88 185 142 700 501 1404 849 1886 932 323
57 801 92 1371 101 453 7 577 7 1265 -5z m-410 -95 c741 -17 1083 -36 1170
-65 42 -14 50 -23 108 -114 112 -181 244 -423 367 -676 67 -137 125 -260 129
-273 13 -39 -9 -52 -88 -52 l-71 0 -34 88 c-89 227 -171 414 -264 602 -115
233 -153 299 -201 353 l-34 38 -163 14 c-361 31 -1189 52 -1571 40 l-235 -7
-6 -67 c-4 -36 -13 -201 -22 -366 -35 -652 -43 -767 -58 -782 -8 -8 -39 -17
-70 -20 -63 -6 -113 9 -122 36 -5 16 13 195 65 636 11 94 23 177 26 185 3 8
11 78 19 155 16 160 25 198 59 240 l24 30 134 6 c231 9 401 9 838 -1z m-1082
-50 c2 -25 -20 -234 -47 -465 -27 -231 -57 -483 -66 -560 -9 -77 -21 -153 -27
-169 -15 -38 -61 -56 -143 -56 -58 0 -66 2 -62 18 3 9 8 40 12 67 17 131 170
912 192 981 11 36 14 67 9 106 l-7 54 -49 13 c-38 10 -66 10 -117 2 -38 -6
-129 -15 -203 -21 -341 -27 -544 -55 -700 -97 -605 -161 -1213 -524 -1699
-1013 -124 -125 -149 -170 -131 -235 24 -87 94 -119 240 -110 52 3 241 10 420
15 498 16 1929 75 2083 86 116 8 127 0 127 -98 0 -38 -5 -89 -11 -114 -11 -41
-14 -44 -44 -44 -44 0 -168 43 -216 74 -21 14 -59 31 -83 38 -60 16 -117 -2
-239 -76 l-92 -56 -140 -9 c-144 -11 -456 -24 -975 -41 -770 -26 -912 -31
-1010 -40 -203 -19 -264 -11 -277 38 -9 38 13 164 46 260 47 137 110 228 246
360 317 308 668 559 1055 752 476 239 803 316 1570 369 146 10 281 18 300 17
34 -1 35 -2 38 -46z m3659 41 c121 -10 184 -36 203 -82 7 -16 9 -33 5 -37 -3
-4 -43 -7 -88 -7 -67 1 -98 6 -172 34 -234 86 -218 114 52 92z m-907 -87 c102
-14 227 -33 277 -44 290 -60 607 -216 893 -439 123 -96 357 -327 391 -386 35
-61 40 -132 10 -159 -18 -16 -20 -16 -39 11 -11 15 -32 53 -47 83 -75 148
-342 409 -577 562 -214 140 -447 240 -683 292 -109 23 -272 46 -339 46 -140 1
-256 29 -256 62 0 14 126 5 370 -28z m-4440 -16 c0 -6 -6 -5 -15 2 -8 7 -15
14 -15 16 0 2 7 1 15 -2 8 -4 15 -11 15 -16z m-96 6 c33 -13 14 -32 -70 -73
-97 -47 -128 -53 -99 -21 10 11 29 20 42 20 29 0 30 16 1 24 -43 11 -71 6
-136 -25 -35 -16 -67 -28 -70 -25 -5 6 169 91 203 99 30 7 111 8 129 1z m3026
-64 c140 -5 308 -12 373 -16 l117 -7 0 -121 c0 -66 -7 -265 -15 -441 -9 -176
-13 -332 -10 -346 4 -15 0 -43 -8 -62 -24 -57 -58 -64 -407 -77 -168 -6 -390
-15 -494 -21 -144 -7 -191 -6 -197 3 -4 6 -5 44 -2 84 l6 72 -44 22 c-121 62
-267 23 -354 -95 -13 -18 -14 -14 -9 45 6 79 44 846 44 892 0 57 9 62 122 69
172 10 608 9 878 -1z m-1610 -43 c17 -9 26 -22 28 -45 4 -36 -89 -541 -144
-782 -19 -85 -40 -179 -46 -207 -10 -48 -13 -53 -42 -57 -80 -13 -507 -36
-949 -52 -164 -6 -193 -5 -232 11 -44 16 -75 53 -75 88 0 7 -9 32 -20 55 -11
23 -34 79 -51 125 -41 112 -72 162 -110 177 -29 12 -33 12 -49 -10 -16 -22
-16 -26 0 -90 10 -38 42 -119 73 -182 30 -63 58 -128 61 -145 7 -28 5 -32 -21
-37 -35 -8 -435 -27 -441 -22 -2 2 4 16 14 31 11 17 19 53 22 103 5 95 -19
168 -78 235 -22 25 -40 49 -40 54 0 9 25 28 190 143 479 332 960 533 1405 585
282 33 468 41 505 22z m4453 -48 c179 -100 430 -268 502 -337 38 -37 87 -82
109 -100 21 -18 36 -36 33 -39 -8 -8 -66 7 -80 21 -57 57 -506 363 -674 460
-46 26 -83 50 -83 53 0 3 22 3 48 1 33 -3 77 -21 145 -59z m-2205 39 c21 -21
13 -360 -19 -792 -11 -142 -15 -162 -36 -185 -49 -55 -51 -5 -28 556 8 193 17
364 21 380 12 50 37 66 62 41z m248 -25 c26 -34 194 -379 252 -518 106 -252
166 -404 161 -410 -3 -2 -103 -10 -223 -16 -209 -11 -339 -10 -351 3 -5 5 2
249 24 752 7 177 7 179 34 202 22 19 32 21 58 14 17 -5 37 -17 45 -27z m-4198
-28 c-21 -19 -43 -35 -50 -35 -7 1 5 16 26 35 51 46 72 45 24 0z m-138 -5 c0
-23 4 -30 20 -30 25 0 26 -16 1 -30 -27 -14 -31 -13 -25 5 4 11 -5 20 -30 30
-42 18 -45 28 -13 43 37 18 47 14 47 -18z m5137 -35 c292 -59 588 -206 833
-415 163 -140 251 -230 278 -288 13 -29 21 -56 18 -59 -15 -15 -288 -24 -624
-21 l-364 3 -24 30 c-26 32 -68 117 -233 465 -55 118 -104 230 -107 249 -13
66 35 74 223 36z m-5209 -17 c13 -13 16 -50 6 -61 -9 -9 -35 4 -28 14 15 24
-19 3 -79 -51 -38 -33 -73 -60 -80 -61 -32 -2 -50 -9 -80 -35 -17 -15 -32 -32
-32 -38 0 -6 -11 -10 -23 -9 -15 2 -44 -14 -83 -47 -33 -27 -69 -55 -80 -61
-19 -10 -20 -9 -9 13 6 13 -20 -10 -57 -50 -66 -70 -87 -84 -95 -61 -6 18 -36
-1 -42 -27 -4 -16 -13 -24 -29 -24 -16 0 -26 -9 -34 -29 -8 -22 -21 -33 -53
-42 -23 -7 -49 -23 -57 -36 -20 -31 -70 -58 -75 -41 -3 7 -10 8 -17 4 -7 -5
-10 -14 -7 -22 8 -21 -138 -139 -219 -178 -115 -54 -172 -73 -186 -59 -20 20
4 60 41 68 44 10 128 91 112 107 -9 9 -19 10 -42 1 -55 -21 -31 3 75 76 71 49
113 71 128 69 19 -3 15 -7 -23 -27 -63 -33 -110 -69 -110 -87 0 -23 14 -17
110 47 65 42 95 69 105 92 7 17 11 35 9 39 -3 5 0 8 5 8 6 0 29 16 51 36 43
39 53 34 19 -10 -12 -15 -18 -30 -15 -33 14 -14 62 14 93 55 18 24 33 39 33
33 0 -22 33 -10 69 26 29 30 33 38 19 41 -9 2 -27 -2 -39 -8 -17 -10 -20 -9
-14 2 28 48 66 63 83 32 8 -15 16 -13 68 16 84 48 176 111 170 117 -2 3 -30
-4 -60 -16 -31 -11 -56 -17 -56 -13 0 4 36 26 80 50 61 33 80 40 80 28 0 -10
9 -16 21 -16 26 0 89 29 89 41 0 5 45 31 99 59 55 27 103 55 107 61 5 9 2 10
-9 6 -9 -3 -19 -2 -22 3 -9 14 69 12 83 -2z m-300 -128 c-9 -13 -16 -16 -23
-9 -7 7 -5 13 5 19 24 15 31 11 18 -10z m7418 -517 c-7 -7 -26 7 -26 19 0 6 6
6 15 -2 9 -7 13 -15 11 -17z m-7338 -48 c85 -36 112 -84 112 -198 0 -120 -1
-121 -175 -73 -32 9 -75 12 -118 8 -80 -6 -107 10 -107 65 0 71 53 148 129
188 54 28 107 31 159 10z m7613 -207 c21 -26 49 -72 64 -102 41 -85 25 -102
-143 -150 -155 -44 -236 -101 -264 -184 -8 -25 -12 -116 -13 -279 0 -209 -3
-245 -16 -259 -15 -14 -17 -13 -29 18 -19 49 -22 492 -5 559 22 81 73 153 181
257 83 80 102 104 107 134 6 42 -4 88 -29 126 -27 41 103 -65 147 -120z
m-8731 122 c0 -5 -5 -10 -11 -10 -5 0 -7 5 -4 10 3 6 8 10 11 10 2 0 4 -4 4
-10z m54 -25 c-31 -24 -39 -17 -13 11 13 14 25 20 27 14 2 -6 -4 -18 -14 -25z
m-140 -36 c-10 -11 -28 -25 -39 -31 -12 -5 -7 3 13 21 37 35 55 42 26 10z
m9037 -19 c34 -44 90 -165 84 -182 -8 -20 -45 -35 -105 -43 -55 -8 -66 2 -106
90 -15 33 -40 77 -57 98 -48 62 -28 76 96 67 58 -4 71 -9 88 -30z m-8587 6
c19 -8 52 -31 74 -51 l41 -36 -36 -56 c-51 -81 -91 -197 -116 -347 l-23 -131
-115 -7 c-351 -23 -647 -33 -761 -24 -68 5 -206 9 -308 9 -171 1 -193 -1 -290
-26 -139 -36 -279 -53 -545 -67 -121 -6 -259 -15 -306 -21 -193 -21 -204 -7
-48 62 147 66 334 128 629 208 374 102 463 124 805 201 455 102 682 173 845
264 71 39 103 44 154 22z m7446 -35 c-31 -18 -1086 -56 -1170 -42 -41 6 -36 8
55 15 95 8 799 31 1025 34 64 1 99 -2 90 -7z m-7014 -62 c20 -28 54 -61 75
-75 22 -13 39 -29 39 -34 0 -13 -105 -13 -152 1 -64 17 -81 74 -42 137 22 33
38 27 80 -29z m5669 32 c17 -3 25 -9 20 -13 -21 -13 -499 -39 -1265 -68 -432
-17 -879 -35 -995 -40 -272 -12 -655 -13 -655 -1 0 13 75 18 430 31 168 6 409
15 535 20 834 35 1251 53 1470 64 279 15 415 17 460 7z m-6710 -11 c99 -12
125 -17 125 -29 0 -20 -91 -45 -530 -142 -265 -59 -796 -193 -995 -251 -189
-55 -317 -104 -487 -185 l-143 -67 -115 0 c-129 0 -270 12 -270 23 0 6 256
115 395 167 347 130 804 262 1270 365 99 22 245 57 325 79 80 21 156 41 170
43 48 8 166 7 255 -3z m6731 -75 c20 -31 13 -74 -29 -174 -44 -102 -59 -111
-171 -100 -118 11 -185 32 -265 82 -60 38 -72 42 -132 42 -64 0 -70 -2 -175
-67 -60 -36 -127 -71 -149 -76 -22 -6 -204 -16 -405 -21 -201 -6 -457 -13
-570 -16 -259 -8 -864 -33 -999 -41 -99 -7 -103 -6 -98 12 5 19 20 112 32 207
4 27 12 50 18 52 11 3 279 18 562 30 412 18 1655 66 1945 76 190 6 347 13 349
15 2 2 19 4 37 4 25 0 38 -7 50 -25z m-7589 -11 c-3 -3 -12 -4 -19 -1 -8 3 -5
6 6 6 11 1 17 -2 13 -5z m-77 -14 c0 -5 -4 -10 -9 -10 -6 0 -13 5 -16 10 -3 6
1 10 9 10 9 0 16 -4 16 -10z m4624 -20 c-17 -17 -524 -45 -1344 -75 -228 -8
-545 -19 -705 -25 -159 -6 -374 -15 -478 -21 -115 -6 -194 -6 -204 -1 -20 12
45 18 432 37 503 25 649 32 1475 65 151 6 349 15 440 19 260 12 396 13 384 1z
m-4840 -30 c-10 -10 -233 -61 -261 -59 -27 1 61 28 162 49 110 22 112 23 99
10z m10425 -123 c15 -46 58 -291 65 -367 l6 -65 -26 90 c-35 120 -92 378 -87
388 8 13 31 -13 42 -46z m-10819 23 c-30 -10 -140 -44 -245 -75 -173 -52 -377
-124 -577 -204 -77 -31 -113 -38 -122 -23 -6 9 145 76 288 127 203 72 629 194
681 193 24 0 20 -3 -25 -18z m10732 -33 c31 -50 52 -119 74 -247 10 -61 25
-111 42 -140 90 -155 92 -163 92 -291 0 -110 -1 -119 -22 -133 -34 -24 -85
-20 -113 9 -22 21 -25 33 -25 92 0 129 -38 457 -85 726 -7 39 6 34 37 -16z
m-2973 10 c38 -19 36 -34 -6 -41 -113 -16 -178 -17 -198 -2 -24 17 -19 23 32
41 48 18 140 19 172 2z m-2840 -88 c71 -25 6 -47 -141 -48 -43 -1 -78 3 -78 8
0 9 63 35 105 44 39 9 82 7 114 -4z m5144 -301 c4 -166 6 -302 5 -303 -2 -2
-108 -8 -236 -14 -128 -7 -274 -19 -325 -27 -193 -32 -176 -34 -230 29 -121
141 -372 281 -616 344 -172 43 -411 42 -563 -3 -36 -11 -18 38 47 131 40 58
73 95 87 98 56 14 1032 42 1579 45 l246 2 6 -302z m-10353 288 c0 -3 -4 -8
-10 -11 -5 -3 -10 -1 -10 4 0 6 5 11 10 11 6 0 10 -2 10 -4z m8430 -49 c0 -28
-80 -135 -146 -198 -27 -25 -105 -78 -172 -118 -187 -110 -242 -152 -337 -258
-48 -54 -110 -115 -137 -135 -97 -73 -81 -72 -1433 -108 -209 -5 -435 -12
-502 -15 -114 -5 -124 -4 -143 15 -24 24 -25 53 -6 430 13 269 19 300 56 320
31 17 1206 57 1795 62 l270 2 82 -33 c45 -17 93 -41 108 -53 22 -17 37 -20 93
-16 56 3 86 12 187 60 138 65 139 65 223 67 58 1 62 0 62 -22z m-375 -26 c18
-7 17 -9 -9 -26 -21 -14 -45 -19 -88 -18 -102 3 -159 33 -88 46 42 7 164 6
185 -2z m-8289 -10 c-3 -5 -54 -28 -113 -52 -60 -23 -144 -60 -187 -81 -75
-36 -78 -37 -55 -12 33 36 64 51 219 105 156 55 143 51 136 40z m5712 -37 c21
-6 22 -11 22 -98 0 -147 -22 -609 -31 -632 -7 -20 -17 -23 -111 -28 -189 -11
-1330 -44 -2293 -66 -247 -5 -483 -13 -522 -16 -70 -5 -74 -5 -102 23 -23 23
-30 42 -36 91 -4 34 -4 85 1 114 4 29 7 139 8 243 1 213 9 245 69 270 34 13
485 36 1107 55 683 21 1157 34 1211 35 47 0 65 -6 110 -34 30 -19 76 -48 103
-65 42 -27 59 -31 117 -31 65 0 69 2 150 57 130 87 148 95 197 82z m-235 -41
c32 -18 -53 -53 -131 -53 -31 1 -68 7 -81 14 l-24 14 21 11 c44 24 182 33 215
14z m-5935 -49 c12 -8 22 -22 22 -30 0 -21 -37 -92 -70 -134 -15 -19 -51 -80
-81 -135 -92 -175 -139 -225 -209 -225 l-33 0 44 24 c84 44 91 51 124 121 17
39 58 104 89 145 32 41 69 97 82 123 l25 48 -21 26 c-36 46 -19 70 28 37z
m3062 -341 c0 -186 -4 -344 -8 -351 -6 -9 -27 15 -67 75 -170 257 -293 375
-523 507 l-111 63 62 6 c34 4 154 11 267 17 113 6 225 12 250 13 25 2 64 4 88
5 l42 2 0 -337z m-912 303 c240 -53 447 -167 602 -332 36 -38 117 -148 182
-244 135 -202 127 -175 153 -525 8 -110 17 -212 19 -226 6 -33 -14 -62 -39
-58 -15 3 -23 28 -46 139 -43 217 -109 381 -207 520 -59 84 -200 224 -280 279
-92 62 -233 127 -342 157 -128 35 -342 44 -479 20 -202 -35 -397 -124 -525
-238 -110 -98 -162 -118 -216 -82 -38 26 -50 45 -50 80 0 58 127 197 295 321
116 87 311 169 455 193 41 6 82 13 90 15 39 10 322 -4 388 -19z m-2217 -12
c16 -19 -2 -34 -43 -34 -32 0 -38 23 -10 39 24 15 38 13 53 -5z m9694 -23
c115 -33 157 -47 234 -82 46 -22 120 -63 165 -93 93 -62 246 -203 246 -227 0
-27 -130 -119 -169 -119 -4 0 -32 18 -62 41 -189 142 -399 215 -644 226 -287
12 -522 -65 -768 -251 -51 -38 -85 -60 -76 -50 8 10 54 64 100 119 47 55 135
161 196 236 138 167 174 189 348 213 58 8 390 -2 430 -13z m-8354 -71 c-178
-123 -284 -220 -367 -336 -38 -53 -51 -64 -74 -64 -59 0 -460 190 -460 218 0
51 105 157 170 171 25 5 158 17 295 26 138 10 293 21 345 25 181 14 174 17 91
-40z m-878 3 c-7 -2 -21 -2 -30 0 -10 3 -4 5 12 5 17 0 24 -2 18 -5z m11222
-13 c4 -6 -42 -10 -132 -9 -86 0 -131 4 -118 9 28 12 242 12 250 0z m-2747
-27 c-8 -10 -82 -97 -163 -193 -464 -548 -780 -878 -925 -967 l-85 -52 -240
-11 c-132 -6 -450 -10 -707 -8 l-468 3 -27 27 -26 27 -5 188 c-2 103 0 204 5
223 l9 35 190 7 c104 3 430 11 724 18 885 19 977 23 1032 47 49 22 68 46 68
87 l0 25 -97 -5 c-280 -13 -1753 -30 -1742 -20 5 5 542 21 1249 36 593 13 582
11 690 120 41 42 106 111 144 153 84 95 179 174 283 233 83 47 118 57 91 27z
m-8628 -62 c0 -12 -20 -25 -27 -18 -7 7 6 27 18 27 5 0 9 -4 9 -9z m-60 -30
c0 -14 -59 -60 -83 -65 -62 -13 -97 -16 -97 -9 0 7 155 81 173 82 4 1 7 -3 7
-8z m2013 -90 c184 -59 311 -132 438 -249 146 -135 271 -345 323 -542 24 -91
46 -265 46 -360 -1 -65 -16 -30 -24 55 -9 92 -50 293 -76 375 -142 440 -527
718 -999 721 -265 2 -465 -68 -691 -241 -76 -59 -94 -61 -35 -5 106 101 237
178 390 230 109 37 180 44 385 41 147 -3 186 -7 243 -25z m7293 -1 c100 -13
176 -32 268 -69 135 -54 296 -162 296 -198 0 -19 -5 -17 -62 23 -123 84 -262
147 -411 186 -67 18 -110 22 -232 22 -130 -1 -163 -4 -250 -27 -440 -118 -779
-507 -810 -929 -7 -101 -19 -130 -32 -81 -13 47 -5 159 17 246 23 88 108 276
161 354 225 331 653 523 1055 473z m-9020 -89 c66 -27 162 -69 214 -93 128
-60 133 -69 86 -192 -45 -115 -73 -208 -81 -268 -14 -95 15 -47 56 92 30 103
65 204 81 233 24 46 108 40 148 -10 28 -36 25 -55 -20 -128 -72 -113 -125
-251 -151 -395 -6 -30 -13 -135 -17 -232 -4 -97 -10 -179 -14 -183 -3 -4 -46
-2 -95 4 -120 15 -408 30 -703 37 -256 6 -326 16 -371 53 -23 19 -23 20 -6 38
15 15 41 19 182 23 207 7 210 9 201 120 -3 41 -9 93 -12 116 -10 71 -1 74 210
74 251 0 296 16 296 106 l0 43 -52 5 c-125 11 -267 28 -318 36 -30 5 -166 9
-301 9 -185 1 -249 4 -256 14 -7 8 -7 33 0 75 9 49 8 70 -2 95 -25 62 -25 76
0 87 13 5 157 46 319 90 305 83 406 118 436 151 23 26 13 33 -22 15 -37 -20
-46 -10 -14 14 38 30 77 24 206 -29z m10563 3 c29 -8 62 -25 74 -37 59 -59
117 -81 302 -111 94 -16 393 -50 577 -65 108 -9 137 -17 121 -32 -11 -11 -488
-27 -988 -34 -400 -5 -410 -6 -427 -26 -23 -27 -23 -40 4 -101 l22 -51 360 7
c1008 19 1046 19 1046 -2 0 -25 -56 -224 -82 -292 -30 -79 -76 -157 -95 -165
-31 -11 -658 -16 -1040 -8 l-373 8 -26 27 c-22 22 -32 50 -55 161 -23 112 -36
149 -77 225 -27 50 -68 112 -90 139 -103 123 -118 179 -61 227 86 73 149 27
227 -164 21 -52 46 -108 56 -125 l17 -30 -5 50 c-4 35 -27 93 -76 190 -39 77
-70 143 -70 147 0 4 18 17 41 28 29 15 73 24 157 30 285 23 394 24 461 4z
m211 -39 c77 -30 338 -65 490 -65 58 -1 135 -5 172 -9 65 -9 187 -55 175 -67
-14 -14 -670 57 -803 86 -85 19 -144 55 -144 87 0 11 7 10 38 -3 20 -8 53 -22
72 -29z m-11173 -16 c-29 -17 -385 -114 -452 -124 l-40 -5 32 15 c75 34 402
122 463 124 11 0 11 -2 -3 -10z m8086 -156 c-7 -2 -19 -2 -25 0 -7 3 -2 5 12
5 14 0 19 -2 13 -5z m-410 -20 c-7 -2 -19 -2 -25 0 -7 3 -2 5 12 5 14 0 19 -2
13 -5z m-666 -10 c-20 -2 -52 -2 -70 0 -17 2 0 4 38 4 39 0 53 -2 32 -4z m273
-3 c0 -5 -4 -10 -10 -10 -5 0 -10 5 -10 10 0 6 5 10 10 10 6 0 10 -4 10 -10z
m2822 -32 c94 -101 171 -235 223 -391 42 -126 71 -309 61 -381 -12 -78 -30
-51 -37 55 -12 171 -46 303 -116 444 -48 97 -68 129 -135 213 -32 40 -58 77
-58 83 0 20 33 7 62 -23z m-3594 15 c-27 -2 -69 -2 -95 0 -27 2 -5 3 47 3 52
0 74 -1 48 -3z m-623 -13 c-55 -4 -179 -7 -275 -7 -126 0 -154 2 -100 7 41 4
165 6 275 7 166 0 183 -2 100 -7z m-4909 -55 c-49 -65 -120 -207 -149 -301
-39 -125 -57 -236 -64 -396 -4 -88 -10 -148 -16 -148 -12 0 -2 269 14 375 24
161 110 381 185 472 49 59 76 58 30 -2z m3947 38 c-23 -2 -64 -2 -90 0 -26 2
-7 3 42 3 50 0 71 -1 48 -3z m1125 -20 c-10 -2 -26 -2 -35 0 -10 3 -2 5 17 5
19 0 27 -2 18 -5z m-460 -10 c-10 -2 -28 -2 -40 0 -13 2 -5 4 17 4 22 1 32 -1
23 -4z m-1845 -10 c-7 -2 -19 -2 -25 0 -7 3 -2 5 12 5 14 0 19 -2 13 -5z
m1170 -10 c-35 -2 -91 -2 -125 0 -35 2 -7 3 62 3 69 0 97 -1 63 -3z m-584 -18
c-3 -2 -275 -9 -605 -15 -329 -6 -609 -15 -621 -20 -19 -8 -23 -17 -23 -50 0
-75 6 -79 122 -74 57 2 324 8 593 14 270 6 753 17 1075 25 322 8 729 18 905
22 l320 6 -5 -242 c-4 -191 -8 -244 -19 -250 -7 -5 -136 -12 -285 -16 -361 -9
-2645 -2 -2672 9 -23 8 -32 47 -54 231 -12 101 -17 331 -8 340 4 4 141 11 305
15 361 8 978 12 972 5z m3950 -89 c-71 -133 -149 -386 -149 -488 l0 -38 -204
0 c-113 0 -207 4 -210 9 -3 5 28 34 69 66 42 32 177 163 302 291 124 129 227
234 229 234 2 0 -15 -33 -37 -74z m-6322 -12 c-3 -3 -12 -4 -19 -1 -8 3 -5 6
6 6 11 1 17 -2 13 -5z m-643 -110 c0 -60 -6 -79 -41 -149 -23 -44 -48 -103
-56 -131 -96 -330 118 -702 453 -789 48 -12 97 -16 194 -13 126 3 133 4 196
37 165 85 298 109 283 50 -19 -71 -240 -182 -418 -209 -302 -46 -629 130 -773
416 -129 256 -84 626 100 826 51 55 63 47 62 -38z m7443 -6 c-4 -47 -18 -89
-55 -168 -74 -158 -85 -229 -57 -385 18 -102 85 -239 154 -317 95 -106 213
-175 343 -202 143 -30 233 -18 443 59 114 41 129 44 153 33 44 -21 34 -48 -34
-94 -142 -95 -298 -139 -469 -131 -219 10 -407 108 -551 287 -126 155 -190
372 -165 556 29 208 141 424 220 424 23 0 24 -2 18 -62z m-6663 26 c13 -5 13
-11 -4 -52 -34 -84 -119 -252 -128 -252 -4 0 -23 13 -41 28 l-34 28 57 114
c32 63 65 120 74 127 18 13 51 17 76 7z m-609 -23 c-3 -6 -11 -11 -17 -11 -6
0 -6 6 2 15 14 17 26 13 15 -4z m175 -2 c0 -6 -4 -7 -10 -4 -5 3 -10 11 -10
16 0 6 5 7 10 4 6 -3 10 -11 10 -16z m7393 13 c9 -4 31 -36 47 -71 17 -34 46
-81 65 -104 19 -22 35 -50 35 -62 0 -25 -42 -49 -70 -40 -22 7 -144 249 -136
270 6 16 29 18 59 7z m495 -4 c18 -18 15 -33 -22 -91 -19 -30 -44 -83 -56
-118 -30 -88 -40 -97 -82 -72 -22 13 -32 26 -30 39 5 39 85 183 120 218 38 39
51 43 70 24z m-7874 -116 c26 -50 57 -100 68 -112 11 -12 18 -23 17 -24 -18
-14 -99 -66 -102 -66 -2 0 -7 12 -10 28 -3 15 -29 69 -57 121 -64 117 -70 143
-38 158 40 18 70 -7 122 -105z m7757 91 c-8 -15 -10 -15 -11 -2 0 17 10 32 18
25 2 -3 -1 -13 -7 -23z m-261 -77 c0 -6 -7 -2 -15 8 -8 11 -15 25 -15 30 0 6
7 2 15 -8 8 -11 15 -25 15 -30z m-7710 10 c0 -3 -4 -8 -10 -11 -5 -3 -10 -1
-10 4 0 6 5 11 10 11 6 0 10 -2 10 -4z m7557 -54 c40 -60 53 -94 52 -140 0
-34 -2 -32 -18 24 -9 33 -32 84 -49 112 -40 65 -28 68 15 4z m538 8 c-9 -18
-19 -30 -21 -27 -3 3 2 19 11 37 9 18 19 30 21 27 3 -3 -2 -19 -11 -37z m-201
-12 c-21 -37 -50 -58 -78 -57 l-31 0 40 18 c22 10 46 26 54 35 16 19 25 21 15
4z m-7794 -18 c0 -5 -2 -10 -4 -10 -3 0 -8 5 -11 10 -3 6 -1 10 4 10 6 0 11
-4 11 -10z m7650 0 c0 -5 -2 -10 -4 -10 -3 0 -8 5 -11 10 -3 6 -1 10 4 10 6 0
11 -4 11 -10z m-7839 -43 c-8 -8 -11 -7 -11 4 0 9 3 19 7 23 4 4 9 2 11 -4 3
-7 -1 -17 -7 -23z m-1871 -2 c7 -8 9 -23 5 -32 -6 -17 -7 -17 -21 1 -26 36
-12 64 16 31z m2571 -121 c28 -30 14 -32 -18 -2 -16 15 -23 32 -22 57 l1 36 8
-33 c4 -18 18 -44 31 -58z m7949 76 c0 -5 -2 -10 -4 -10 -3 0 -8 5 -11 10 -3
6 -1 10 4 10 6 0 11 -4 11 -10z m-7680 -31 c0 -6 -4 -7 -10 -4 -5 3 -10 11
-10 16 0 6 5 7 10 4 6 -3 10 -11 10 -16z m-2737 4 c-7 -2 -19 -2 -25 0 -7 3
-2 5 12 5 14 0 19 -2 13 -5z m2295 -7 c61 -32 102 -104 102 -178 0 -121 -130
-186 -250 -125 -88 44 -115 136 -67 227 40 75 145 112 215 76z m7435 0 c69
-28 125 -124 114 -193 -7 -42 -48 -98 -87 -118 -46 -24 -140 -20 -181 8 -83
55 -95 203 -23 269 53 47 117 60 177 34z m501 -21 c3 -8 1 -15 -4 -15 -6 0
-10 7 -10 15 0 8 2 15 4 15 2 0 6 -7 10 -15z m-10294 -51 c0 -13 -4 -24 -10
-24 -5 0 -10 14 -10 31 0 17 4 28 10 24 6 -3 10 -17 10 -31z m10030 3 c9 -3 5
-6 -10 -6 -14 0 -36 8 -50 19 l-25 20 35 -14 c19 -7 42 -16 50 -19z m-9703 1
c-3 -8 -6 -5 -6 6 -1 11 2 17 5 13 3 -3 4 -12 1 -19z m2323 -8 c12 -8 11 -10
-7 -10 -13 0 -23 5 -23 10 0 13 11 13 30 0z m6727 -16 c-3 -3 -12 -4 -19 -1
-8 3 -5 6 6 6 11 1 17 -2 13 -5z m1566 -1 c-7 -2 -19 -2 -25 0 -7 3 -2 5 12 5
14 0 19 -2 13 -5z m175 0 c-16 -2 -40 -2 -55 0 -16 2 -3 4 27 4 30 0 43 -2 28
-4z m470 0 c-38 -2 -98 -2 -135 0 -38 2 -7 3 67 3 74 0 105 -1 68 -3z m-8777
-19 c8 -10 9 -24 2 -47 l-9 -32 -69 -1 c-39 0 -104 -4 -146 -8 -74 -7 -75 -7
-87 19 -17 37 -15 62 6 74 28 16 289 11 303 -5z m6701 1 c8 -3 13 -22 13 -53
l-1 -47 -69 1 c-199 3 -271 22 -233 61 13 12 45 18 137 23 67 4 124 10 128 13
8 8 8 8 25 2z m736 -21 c26 -17 29 -39 6 -48 -29 -11 -198 -28 -249 -24 -46 3
-50 5 -53 30 -2 15 2 36 8 48 10 19 17 20 138 14 85 -4 134 -10 150 -20z
m-8184 -3 c11 -12 16 -31 14 -53 l-3 -33 -115 -3 c-131 -3 -179 3 -187 24 -9
25 26 54 66 54 20 1 63 7 96 14 84 19 109 19 129 -3z m2539 -35 c114 -2 210
-6 213 -9 3 -3 0 -15 -6 -27 -9 -18 -9 -25 2 -36 10 -11 39 -11 152 -3 97 8
146 7 162 0 15 -7 211 -11 561 -12 296 -1 988 -5 1538 -9 747 -5 401 -6 -1366
-6 -2313 1 -2367 1 -2388 20 -20 18 -29 74 -15 88 5 6 673 2 1147 -6z m350 -3
c-7 -2 -21 -2 -30 0 -10 3 -4 5 12 5 17 0 24 -2 18 -5z m140 0 c-7 -2 -21 -2
-30 0 -10 3 -4 5 12 5 17 0 24 -2 18 -5z m-2236 -85 c-3 -8 -6 -5 -6 6 -1 11
2 17 5 13 3 -3 4 -12 1 -19z m7338 12 c4 -6 -21 -10 -67 -10 -126 0 -197 -34
-183 -87 4 -16 2 -22 -5 -18 -11 7 -13 35 -4 60 8 20 54 44 107 55 60 11 145
12 152 0z m-8205 -10 c0 -5 -4 -10 -9 -10 -6 0 -13 5 -16 10 -3 6 1 10 9 10 9
0 16 -4 16 -10z m7482 0 c21 -6 44 -21 53 -33 26 -37 17 -41 -20 -9 -34 30
-59 38 -140 45 -32 3 -29 4 15 5 30 1 72 -3 92 -8z m-6957 -30 c-4 -12 -9 -19
-12 -17 -3 3 -2 15 2 27 4 12 9 19 12 17 3 -3 2 -15 -2 -27z m-765 -10 c0 -5
-4 -10 -10 -10 -5 0 -10 5 -10 10 0 6 5 10 10 10 6 0 10 -4 10 -10z m8550 -10
c0 -5 -4 -10 -10 -10 -5 0 -10 5 -10 10 0 6 5 10 10 10 6 0 10 -4 10 -10z
m-7505 -10 c3 -5 1 -10 -4 -10 -6 0 -11 5 -11 10 0 6 2 10 4 10 3 0 8 -4 11
-10z m1359 -30 c36 -11 67 -24 70 -29 8 -13 -185 -21 -520 -21 -271 0 -315 2
-328 16 -17 16 -21 46 -8 58 4 4 167 5 364 2 319 -5 363 -8 422 -26z m295 20
c34 0 42 -3 37 -15 -7 -19 -4 -19 44 6 38 20 43 20 57 6 9 -8 13 -23 10 -31
-11 -27 -57 -37 -149 -34 -71 2 -87 6 -83 17 9 23 -15 31 -92 31 -40 0 -73 4
-73 9 0 15 39 20 125 15 44 -2 100 -4 124 -4z m-2202 -46 c2 -5 -15 -29 -38
-54 -47 -53 -64 -82 -73 -129 -10 -54 -32 -81 -66 -81 -28 0 -30 3 -30 37 0
20 6 44 14 52 14 16 35 71 55 148 18 67 33 76 88 54 26 -10 48 -22 50 -27z
m-399 5 c-3 -8 -7 -3 -11 10 -4 17 -3 21 5 13 5 -5 8 -16 6 -23z m602 21 c10
-5 40 -45 66 -87 26 -43 55 -90 65 -105 23 -33 24 -57 4 -64 -32 -13 -62 6
-88 53 -14 27 -53 75 -86 108 -34 33 -61 65 -61 73 0 25 66 40 100 22z m7479
-63 c50 -69 79 -126 87 -175 5 -32 3 -40 -12 -46 -11 -4 -20 -2 -22 4 -2 6
-23 34 -45 62 -23 28 -49 60 -57 72 -8 11 -27 36 -42 54 -34 39 -36 66 -6 86
28 20 48 9 97 -57z m-275 57 c27 -10 18 -38 -29 -93 -25 -29 -48 -65 -51 -79
-9 -36 -51 -119 -64 -127 -6 -4 -18 -1 -26 6 -20 17 -15 52 25 159 42 114 88
156 145 134z m-4710 -36 c-4 -6 -10 -5 -15 3 -14 22 -10 33 6 19 8 -7 12 -17
9 -22z m-207 16 c-3 -3 -12 -4 -19 -1 -8 3 -5 6 6 6 11 1 17 -2 13 -5z m4941
-83 c-24 -27 -49 -66 -56 -88 -6 -21 -19 -47 -27 -58 -16 -19 -16 -19 -10 5
15 60 68 152 98 171 18 10 34 19 35 19 2 0 -16 -22 -40 -49z m323 11 c46 -66
64 -96 53 -90 -16 10 -97 128 -87 128 4 0 20 -17 34 -38z m-1112 -62 c90 -209
248 -374 462 -482 l84 -43 -120 -6 c-163 -8 -6359 -11 -6557 -2 -87 3 -158 9
-158 13 0 5 19 15 43 25 85 34 202 112 283 188 86 81 146 167 199 284 46 104
32 101 267 58 112 -20 271 -50 353 -67 173 -34 165 -34 1085 2 519 21 532 22
685 48 85 14 173 17 585 17 440 0 491 -2 550 -19 36 -10 106 -22 155 -27 103
-10 703 6 805 22 156 25 261 30 690 38 370 6 462 11 495 23 22 9 44 15 49 14
5 -1 25 -40 45 -86z m939 24 c-4 -3 -12 5 -18 18 -12 22 -12 22 6 6 10 -10 15
-20 12 -24z m-7420 -10 c-4 -3 -12 5 -18 18 -12 22 -12 22 6 6 10 -10 15 -20
12 -24z m212 -19 c0 -5 -9 1 -20 15 -11 14 -20 30 -20 35 0 6 9 -1 20 -15 11
-14 20 -29 20 -35z m7275 -65 c28 -56 32 -75 9 -45 -27 34 -55 95 -44 95 5 0
21 -22 35 -50z m-455 30 c0 -5 -4 -10 -10 -10 -5 0 -10 5 -10 10 0 6 5 10 10
10 6 0 10 -4 10 -10z m-6950 -61 c0 -18 -20 1 -36 34 l-15 32 25 -28 c15 -15
26 -33 26 -38z m220 57 c0 -2 -8 -10 -17 -17 -16 -13 -17 -12 -4 4 13 16 21
21 21 13z m-690 -106 c8 -5 11 -10 5 -10 -5 0 -17 5 -25 10 -8 5 -10 10 -5 10
6 0 17 -5 25 -10z m303 3 c-13 -2 -35 -2 -50 0 -16 2 -5 4 22 4 28 0 40 -2 28
-4z m127 -13 c0 -5 -5 -10 -11 -10 -5 0 -7 5 -4 10 3 6 8 10 11 10 2 0 4 -4 4
-10z m-93 -16 c-3 -3 -12 -4 -19 -1 -8 3 -5 6 6 6 11 1 17 -2 13 -5z m-120
-50 c-3 -3 -12 -4 -19 -1 -8 3 -5 6 6 6 11 1 17 -2 13 -5z"/>
<path d="M5105 5119 c-9 -13 13 -30 35 -26 8 1 15 9 15 17 0 18 -40 26 -50 9z"/>
<path d="M7419 4747 c-47 -31 -80 -117 -87 -224 -8 -140 40 -219 150 -243 139
-30 173 -25 208 33 39 64 15 317 -36 385 -53 69 -169 94 -235 49z"/>
<path d="M4520 4775 c-10 -12 -10 -15 4 -15 9 0 16 7 16 15 0 8 -2 15 -4 15
-2 0 -9 -7 -16 -15z"/>
<path d="M3924 4365 c-18 -13 -18 -14 4 -8 12 3 25 9 28 14 8 14 -10 11 -32
-6z"/>
<path d="M3690 4205 c-8 -9 -8 -15 -2 -15 12 0 26 19 19 26 -2 2 -10 -2 -17
-11z"/>
<path d="M3569 4110 l-24 -21 33 16 c31 15 41 25 23 25 -5 0 -19 -9 -32 -20z"/>
<path d="M11140 3408 c-58 -30 -93 -89 -93 -162 -1 -88 43 -143 136 -168 137
-36 254 129 185 261 -41 79 -146 111 -228 69z m123 -32 c43 -17 85 -68 93
-111 8 -46 -21 -102 -66 -127 -47 -24 -121 -24 -151 1 -24 20 -24 20 -2 14 24
-6 83 16 83 31 0 6 5 5 12 -2 22 -22 39 -12 59 36 36 83 36 97 -4 115 -46 22
-102 22 -125 -1 -10 -10 -26 -44 -36 -75 -22 -71 -41 -70 -41 1 1 43 6 57 30
83 48 50 89 60 148 35z"/>
<path d="M4855 1897 c-22 -17 -14 -47 14 -47 11 0 22 -6 25 -12 3 -7 4 5 3 26
-2 44 -14 53 -42 33z"/>
<path d="M4927 1893 c-11 -10 -8 -63 3 -63 5 0 14 9 20 20 12 22 36 27 43 8 2
-7 8 -10 12 -6 13 12 -25 48 -50 48 -12 0 -25 -3 -28 -7z"/>
<path d="M4490 1871 c0 -11 5 -23 10 -26 6 -4 10 5 10 19 0 14 -4 26 -10 26
-5 0 -10 -9 -10 -19z"/>
<path d="M4791 1864 c0 -11 3 -14 6 -6 3 7 2 16 -1 19 -3 4 -6 -2 -5 -13z"/>
<path d="M4530 1861 c0 -5 5 -13 10 -16 6 -3 10 -2 10 4 0 5 -4 13 -10 16 -5
3 -10 2 -10 -4z"/>
</g>
</svg>
