<?xml version="1.0" standalone="no"?>
<!DOCTYPE svg PUBLIC "-//W3C//DTD SVG 20010904//EN"
 "http://www.w3.org/TR/2001/REC-SVG-20010904/DTD/svg10.dtd">
<svg version="1.0" xmlns="http://www.w3.org/2000/svg"
 width="1280.000000pt" height="720.000000pt" viewBox="0 0 1280.000000 720.000000"
 preserveAspectRatio="xMidYMid meet">
<metadata>
Created by potrace 1.15, written by Peter Selinger 2001-2017
</metadata>
<g transform="translate(0.000000,720.000000) scale(0.100000,-0.100000)"
fill="#000000" stroke="none">
<path d="M7015 7193 c-759 -29 -1346 -105 -1920 -247 -232 -58 -369 -103 -486
-161 -104 -51 -273 -160 -304 -195 l-20 -23 33 6 c19 4 107 42 195 86 290 141
589 243 810 275 191 28 587 48 1342 67 809 21 1269 -17 1389 -114 25 -20 28
-28 22 -59 -8 -43 -118 -259 -268 -528 -242 -431 -358 -661 -514 -1011 -86
-196 -194 -416 -261 -531 -34 -60 -50 -78 -67 -78 -12 0 -280 16 -596 35 -949
57 -985 58 -1530 58 -779 0 -1400 -37 -1970 -119 -534 -76 -684 -128 -849
-293 -127 -127 -311 -394 -397 -575 -112 -238 -123 -467 -31 -661 60 -125 168
-222 344 -309 201 -100 321 -120 651 -113 553 11 795 108 1742 697 932 579
1338 775 1785 865 351 70 787 58 1115 -30 350 -94 660 -277 967 -568 280 -266
440 -567 517 -970 51 -264 86 -599 93 -890 6 -234 6 -237 27 -237 88 0 952
165 1110 211 105 32 108 36 135 229 75 544 115 804 146 955 123 607 301 968
636 1290 159 154 310 261 453 322 81 35 222 45 233 18 9 -24 -23 -49 -158
-126 -208 -120 -401 -276 -550 -444 -114 -129 -178 -226 -254 -380 -139 -283
-206 -563 -320 -1330 -55 -372 -97 -601 -112 -616 -26 -26 -651 -157 -1088
-229 -137 -23 -250 -42 -251 -43 -3 -3 -101 -271 -109 -294 -6 -22 -4 -23 49
-23 204 0 1445 234 1626 306 36 15 39 20 59 92 11 42 43 199 71 347 78 421
157 721 257 975 188 477 439 789 701 870 311 97 649 -56 876 -398 120 -181
170 -301 313 -757 15 -49 32 -90 38 -90 17 0 43 87 64 216 92 554 16 1032
-211 1333 -60 79 -341 364 -717 727 -379 364 -552 557 -981 1094 -296 371
-416 512 -549 649 -355 363 -593 471 -1293 591 -539 92 -1103 137 -1668 133
-140 -1 -286 -3 -325 -5z m1840 -302 c114 -30 242 -97 373 -196 110 -82 140
-99 129 -72 -3 6 -17 42 -33 79 -15 38 -24 71 -20 75 13 13 155 3 245 -17 100
-22 229 -64 286 -93 202 -101 518 -368 694 -588 118 -145 330 -496 512 -844
103 -198 142 -291 135 -321 -21 -83 -385 -156 -829 -167 l-108 -2 -80 180
c-230 512 -316 700 -375 814 -57 112 -64 121 -58 81 4 -25 35 -142 69 -260 89
-303 101 -350 130 -482 29 -138 32 -196 4 -88 -68 257 -262 843 -380 1145
-160 409 -405 659 -718 731 -94 22 -252 21 -322 -3 -198 -67 -356 -253 -542
-638 -51 -104 -166 -338 -258 -520 -207 -413 -296 -642 -334 -863 -19 -108
-11 -128 93 -231 218 -215 412 -282 817 -284 222 -1 258 7 450 105 250 128
269 137 355 161 47 14 162 34 255 46 395 51 549 109 594 223 20 51 21 52 15
13 -9 -54 -27 -87 -66 -120 -74 -63 -184 -93 -503 -139 -285 -41 -359 -63
-520 -153 -257 -143 -376 -178 -605 -177 -168 1 -294 21 -440 71 -207 71 -386
197 -442 312 -20 40 -23 60 -22 161 2 193 68 393 236 720 173 335 254 496 333
665 86 183 199 363 313 499 105 124 171 169 297 200 46 11 243 -3 320 -23z
m-44 -86 c206 -54 445 -242 558 -440 57 -99 150 -320 212 -505 54 -161 58
-185 29 -200 -28 -15 -86 0 -236 63 -163 69 -212 84 -299 96 -93 13 -425 28
-805 37 -168 3 -322 9 -342 13 l-37 6 55 135 c128 315 223 475 386 645 104
109 164 153 227 166 50 11 179 3 252 -16z m10 -1035 c533 -41 785 -202 924
-590 38 -107 67 -235 59 -265 -10 -42 -77 -90 -157 -113 -104 -31 -209 -42
-370 -41 -169 1 -243 16 -92 19 268 4 481 39 537 89 43 38 46 90 14 216 -77
298 -287 530 -539 594 -174 45 -618 77 -932 68 -220 -7 -317 -23 -376 -61 -89
-60 -280 -421 -350 -666 -11 -36 -19 -68 -19 -72 0 -23 41 2 152 94 203 167
327 239 488 284 51 15 101 18 230 18 188 0 265 -14 364 -66 75 -39 191 -153
233 -228 27 -48 98 -259 89 -267 -9 -10 -38 45 -71 135 -105 288 -267 393
-609 393 -291 0 -471 -75 -703 -293 -179 -168 -189 -171 -180 -54 7 92 62 255
141 422 70 145 118 220 201 316 l55 63 178 5 c329 10 597 10 733 0z m491 -230
c-6 -79 -156 -340 -203 -355 -22 -7 -39 7 -39 32 0 42 88 225 145 303 50 67
102 78 97 20z m-684 -316 c163 -42 291 -214 294 -395 0 -35 -3 -80 -7 -99 -30
-138 -159 -245 -346 -287 -94 -21 -482 -24 -604 -4 -177 29 -406 141 -443 217
-15 32 -14 34 14 75 61 88 418 390 527 445 133 68 400 90 565 48z m1345 -779
c172 -36 253 -135 199 -242 -27 -53 -71 -88 -157 -129 -95 -46 -167 -58 -305
-51 -176 9 -278 43 -338 112 -39 43 -42 88 -11 153 38 77 146 137 289 161 86
14 248 12 323 -4z m-7488 -1225 c83 -13 179 -62 204 -104 12 -18 21 -50 21
-71 0 -75 -116 -149 -254 -162 -106 -10 -262 45 -309 109 -25 33 -24 99 0 141
43 74 189 111 338 87z"/>
<path d="M9526 6632 c-2 -4 46 -109 107 -232 142 -285 396 -830 563 -1206
l129 -292 50 -6 c27 -3 131 -6 230 -6 247 0 264 12 207 134 -59 126 -176 285
-472 642 -245 296 -289 364 -245 380 23 9 76 -30 161 -118 172 -180 372 -428
577 -714 106 -148 152 -203 162 -192 8 7 -121 264 -205 408 -274 471 -562 830
-785 979 -122 82 -264 159 -367 200 -78 32 -103 37 -112 23z m547 -801 c90
-59 562 -723 555 -780 -5 -39 -24 -36 -68 11 -120 123 -530 719 -530 770 0 23
8 23 43 -1z"/>
<path d="M8550 6791 c-131 -43 -312 -263 -488 -591 -47 -89 -132 -287 -132
-310 0 -7 168 -10 498 -10 300 0 533 -4 587 -11 91 -11 149 -30 350 -113 142
-58 201 -74 217 -58 16 16 -6 93 -86 296 -68 172 -127 297 -184 386 -126 199
-311 346 -499 394 -72 19 -227 29 -263 17z"/>
<path d="M8202 5199 c-119 -23 -314 -156 -520 -354 -122 -116 -140 -165 -82
-222 41 -40 187 -110 275 -133 164 -42 481 -54 651 -25 159 28 282 102 339
206 27 49 30 63 30 144 0 80 -4 97 -32 156 -40 85 -88 138 -161 177 -93 50
-158 62 -317 61 -77 -1 -159 -5 -183 -10z m310 -70 c164 -35 260 -124 289
-271 10 -49 9 -61 -7 -95 -40 -81 -98 -43 -139 92 -38 127 -58 139 -283 175
-143 23 -195 41 -186 64 15 39 209 60 326 35z"/>
<path d="M6654 6802 c-27 -48 -117 -199 -199 -337 -242 -408 -283 -499 -241
-534 7 -6 50 -18 94 -26 114 -20 158 -33 224 -66 111 -56 167 -126 213 -266
14 -46 35 -93 44 -105 17 -21 20 -21 42 -6 13 8 69 58 124 110 116 108 166
145 261 190 86 40 185 136 276 268 88 128 287 461 350 586 92 186 70 220 -162
244 -97 10 -693 30 -875 30 l-100 0 -51 -88z"/>
<path d="M6170 6873 c-173 -13 -235 -42 -319 -146 -172 -218 -550 -869 -691
-1192 -71 -161 -109 -231 -144 -264 -28 -26 -56 -23 -56 7 0 31 47 180 109
345 l59 157 -117 0 c-131 0 -230 -20 -351 -70 -146 -60 -284 -152 -365 -242
-99 -110 -225 -356 -233 -454 l-4 -51 73 -7 c125 -10 466 -25 1179 -51 736
-27 715 -25 1110 -56 146 -11 319 -18 385 -17 l120 3 27 50 c62 114 298 687
298 724 0 32 -25 44 -57 28 -39 -21 -146 -126 -230 -227 -92 -111 -104 -121
-152 -127 -38 -5 -44 -3 -80 34 -37 39 -59 90 -96 218 -40 140 -143 238 -220
209 -49 -19 -112 -160 -227 -509 -44 -132 -86 -250 -94 -262 -17 -27 -49 -30
-58 -7 -11 28 -6 113 10 192 9 42 49 177 90 299 72 216 85 275 63 288 -6 4
-31 4 -55 0 -75 -11 -111 -54 -199 -229 -75 -151 -133 -236 -161 -236 -22 0
-17 77 10 156 58 168 287 621 505 999 63 110 143 249 178 309 35 61 63 116 63
123 0 10 -35 13 -162 11 -90 -1 -183 -3 -208 -5z"/>
<path d="M5416 6829 c-59 -10 -172 -35 -250 -55 -472 -122 -780 -293 -1176
-656 -268 -244 -714 -772 -979 -1158 l-72 -105 178 -3 c297 -5 594 24 704 71
51 21 82 67 122 183 82 236 139 334 262 457 215 213 475 319 881 357 l131 13
196 336 c273 467 319 552 305 568 -16 19 -171 15 -302 -8z"/>
<path d="M3624 6008 c-219 -198 -675 -710 -881 -988 -154 -208 -171 -265 -69
-226 48 18 116 98 346 406 280 374 497 639 627 766 69 68 90 104 59 104 -8 0
-45 -28 -82 -62z"/>
<path d="M2450 5365 c-210 -45 -403 -180 -476 -333 -40 -82 -39 -167 1 -241
56 -102 108 -119 250 -82 100 26 152 55 221 126 82 86 217 296 328 513 l17 32
-138 -1 c-76 0 -167 -7 -203 -14z"/>
<path d="M1615 4376 c-344 -116 -449 -161 -461 -198 -6 -21 10 -50 60 -106 97
-110 119 -175 119 -347 0 -261 -79 -454 -257 -622 -161 -154 -373 -236 -561
-219 -96 9 -134 20 -248 73 -53 26 -100 44 -103 41 -17 -18 -36 -130 -41 -245
l-6 -132 34 -5 c277 -45 1425 -86 2989 -106 787 -10 1226 -24 2065 -65 275
-13 622 -29 770 -35 149 -6 325 -13 391 -16 l122 -6 5 -36 c3 -21 9 -70 13
-109 6 -67 5 -73 -12 -73 -11 0 -84 5 -164 10 -226 14 -974 29 -2320 45 -1855
23 -2427 37 -3535 90 -171 8 -334 16 -362 18 -29 2 -53 1 -53 -2 0 -3 52 -21
116 -38 206 -58 274 -108 274 -201 0 -100 -60 -141 -291 -199 -79 -19 -146
-37 -149 -40 -6 -6 76 -77 135 -118 67 -45 155 -69 365 -100 270 -40 460 -74
481 -86 29 -15 18 -33 -27 -42 -21 -4 -209 -10 -416 -14 l-377 -6 -6 -74 c-9
-88 9 -145 62 -204 91 -100 217 -126 903 -183 1219 -103 3189 -186 4403 -186
l519 0 122 115 c215 201 324 345 445 585 94 185 158 351 305 790 68 206 138
408 155 447 105 254 300 380 546 352 293 -32 540 -273 665 -647 88 -263 126
-543 150 -1092 6 -135 13 -279 16 -320 l6 -74 59 142 c110 269 133 392 133
717 -1 238 -14 401 -55 645 -121 731 -438 1172 -1054 1470 -300 145 -547 207
-861 217 -192 6 -344 -6 -536 -43 -250 -48 -605 -168 -633 -214 -7 -12 -14
-11 155 -13 120 -2 142 -5 196 -28 119 -50 282 -194 375 -330 73 -107 119
-233 119 -322 0 -124 -117 -360 -242 -486 -103 -104 -286 -204 -451 -246 -261
-66 -459 -27 -592 117 -105 113 -157 265 -157 453 0 183 38 312 146 500 81
140 89 156 82 162 -6 6 -40 -14 -536 -322 -530 -330 -663 -408 -915 -535 -443
-224 -679 -288 -1096 -297 -315 -8 -493 17 -685 92 -221 88 -415 278 -486 476
-20 58 -22 81 -22 249 1 172 2 191 28 275 39 127 107 264 232 460 160 253 174
277 168 286 -11 18 -64 7 -219 -45z m990 -2287 c533 -17 862 -39 894 -58 8 -5
5 -74 -9 -243 -21 -250 -40 -372 -59 -391 -16 -16 -719 -15 -1041 2 -408 21
-707 53 -761 81 -27 15 -32 77 -26 303 7 276 16 303 99 318 48 9 445 4 903
-12z m3149 -29 c92 -14 204 -54 235 -84 30 -31 41 -101 29 -189 -18 -134 -37
-139 -458 -141 -376 -1 -399 3 -471 74 -52 52 -65 91 -56 161 12 91 97 149
253 173 106 17 371 20 468 6z"/>
<path d="M1747 1882 c-9 -56 -17 -129 -17 -162 0 -107 25 -118 340 -150 308
-31 965 -65 1124 -58 119 5 130 13 146 109 16 95 10 243 -11 264 -40 40 -425
67 -1315 91 l-250 7 -17 -101z"/>
<path d="M913 4011 c-80 -44 -168 -118 -283 -238 -200 -206 -342 -423 -356
-543 -6 -50 -4 -59 20 -86 14 -17 63 -50 108 -73 183 -93 322 -68 505 88 202
174 280 331 271 550 -6 137 -30 201 -103 276 -63 65 -85 68 -162 26z"/>
<path d="M5631 3762 c-27 -28 -74 -101 -115 -177 -144 -272 -188 -335 -233
-335 -24 0 -25 2 -21 43 3 23 29 103 58 177 28 74 55 150 58 169 l5 35 -34
-25 c-61 -43 -149 -140 -190 -210 -144 -242 -126 -574 39 -719 60 -53 182
-100 260 -100 78 0 232 40 313 80 152 77 302 207 346 302 41 85 56 165 50 268
-7 134 -59 270 -104 270 -31 0 -183 -298 -183 -360 0 -35 -34 -87 -71 -109
-44 -27 -59 -18 -59 36 0 59 18 120 101 340 75 198 91 263 67 263 -43 0 -117
-95 -228 -295 -143 -257 -210 -329 -210 -230 0 47 44 161 133 345 81 168 111
246 103 267 -10 25 -40 13 -85 -35z"/>
<path d="M11577 3565 c-116 -22 -179 -57 -273 -151 -214 -214 -432 -659 -543
-1106 -17 -68 -54 -256 -81 -418 -57 -335 -81 -444 -109 -499 -35 -67 -115
-121 -181 -121 -51 0 -70 -16 -70 -59 0 -79 109 -242 232 -348 35 -29 108 -76
163 -104 127 -63 224 -79 480 -79 261 0 389 24 553 102 81 38 239 157 353 266
154 146 161 160 223 409 62 249 125 595 146 799 39 384 -144 867 -440 1164
-124 124 -172 150 -288 155 -53 3 -118 -1 -165 -10z m332 -587 c25 -12 82 -58
127 -103 84 -83 120 -143 143 -238 42 -172 39 -797 -4 -983 -34 -145 -122
-303 -220 -392 -79 -72 -153 -106 -242 -110 -63 -4 -77 -1 -124 24 -138 76
-265 333 -299 604 -40 327 34 686 196 947 54 89 179 220 239 251 54 28 126 28
184 0z"/>
<path d="M11730 2784 c-151 -172 -212 -288 -250 -474 -28 -134 -37 -376 -21
-520 20 -175 94 -361 174 -438 121 -117 307 37 377 311 37 146 45 242 45 537
0 311 -7 360 -62 462 -25 45 -167 208 -181 208 -4 0 -41 -39 -82 -86z"/>
<path d="M7468 2996 c-164 -44 -236 -175 -436 -796 -89 -275 -163 -462 -266
-675 -146 -298 -224 -396 -531 -668 -99 -88 -186 -165 -193 -172 -11 -10 -7
-29 22 -105 84 -215 175 -333 314 -402 69 -35 90 -41 251 -73 41 -8 97 -26
125 -41 45 -24 57 -26 118 -20 58 5 68 4 68 -10 0 -14 -12 -15 -87 -12 -78 3
-93 7 -132 33 -41 27 -52 30 -128 30 -72 0 -83 2 -83 18 0 9 -4 17 -10 17 -5
0 -10 -8 -10 -17 -1 -17 -1 -17 -11 0 -8 14 -24 17 -89 17 -77 0 -117 15 -63
23 16 2 3 5 -27 6 -30 1 -62 5 -70 11 -9 5 -19 5 -27 -2 -21 -17 -5 -27 33
-21 27 5 40 1 59 -17 21 -20 32 -22 94 -18 61 3 72 1 77 -14 5 -16 18 -18 100
-18 88 0 98 -2 160 -35 63 -34 72 -36 148 -33 71 3 81 5 78 21 -3 16 16 17
287 17 279 0 382 8 406 32 7 7 -1 8 -25 4 -109 -22 -163 -26 -339 -26 -107 0
-192 2 -190 4 2 2 78 9 169 16 173 12 281 29 363 56 122 40 386 261 481 402
51 75 84 169 115 323 144 719 59 1457 -216 1888 -46 72 -134 163 -194 202 -99
63 -232 84 -341 55z m289 -550 c64 -30 129 -94 187 -183 89 -140 101 -205 117
-632 13 -361 7 -438 -47 -551 -86 -181 -248 -381 -352 -434 -85 -43 -131 -50
-198 -31 -50 14 -69 28 -129 88 -164 168 -235 422 -235 845 0 299 25 451 96
600 61 127 227 274 353 312 57 18 154 11 208 -14z"/>
<path d="M7523 2305 c-188 -94 -305 -383 -306 -755 -1 -303 64 -527 209 -719
58 -77 88 -94 137 -79 90 28 202 148 272 293 89 182 121 356 112 598 -13 339
-121 610 -269 672 -53 22 -97 19 -155 -10z"/>
<path d="M753 864 c-29 -7 -33 -23 -18 -67 50 -145 185 -302 321 -374 302
-159 672 -175 1035 -43 183 66 446 282 437 359 -3 24 -7 26 -73 33 -68 8 -700
57 -995 78 -160 12 -673 22 -707 14z"/>
</g>
</svg>
